<?xml version="1.0" standalone="no"?>
<!DOCTYPE svg PUBLIC "-//W3C//DTD SVG 20010904//EN"
 "http://www.w3.org/TR/2001/REC-SVG-20010904/DTD/svg10.dtd">
<svg version="1.0" xmlns="http://www.w3.org/2000/svg"
 width="802.000000pt" height="802.000000pt" viewBox="0 0 802.000000 802.000000"
 preserveAspectRatio="xMidYMid meet">
<metadata>
Created by potrace 1.14, written by Peter Selinger 2001-2017
</metadata>
<g transform="translate(0.000000,802.000000) scale(0.100000,-0.100000)"
fill="#000000" stroke="none">
<path d="M0 4015 l0 -4005 4005 0 4005 0 0 4005 0 4005 -4005 0 -4005 0 0
-4005z m2547 1579 c257 -38 457 -130 616 -283 219 -210 318 -454 334 -821 9
-217 -24 -432 -90 -581 l-24 -56 -84 -11 c-114 -16 -212 -64 -294 -142 -93
-90 -138 -184 -153 -323 l-7 -61 -81 -33 c-45 -17 -126 -42 -180 -54 -94 -21
-125 -23 -666 -26 l-568 -4 0 1205 0 1206 546 0 c442 0 566 -3 651 -16z m1853
-1154 c0 -1108 -1 -1174 -19 -1267 -48 -246 -145 -431 -309 -584 -185 -173
-382 -243 -692 -244 -175 0 -246 11 -373 61 -202 79 -400 252 -486 423 -50 99
-50 98 16 111 117 23 219 52 300 86 l84 34 72 -73 c107 -109 222 -157 370
-157 218 1 418 153 481 369 14 49 16 184 16 1233 l0 1178 270 0 270 0 0 -1170z
m1790 1141 c238 -55 467 -170 624 -313 l60 -54 -138 -170 c-76 -93 -141 -170
-146 -172 -4 -2 -37 19 -73 47 -88 66 -186 120 -279 153 -324 115 -672 54
-784 -138 -35 -60 -45 -98 -45 -182 0 -124 49 -206 174 -290 78 -52 119 -70
542 -247 316 -132 429 -190 543 -280 194 -154 288 -344 299 -610 9 -210 -33
-367 -142 -530 -150 -226 -384 -368 -710 -432 -127 -24 -423 -24 -555 1 -301
58 -609 209 -802 394 l-47 45 124 146 c68 80 139 164 157 185 l34 39 81 -64
c222 -176 460 -272 703 -286 270 -15 489 82 566 250 25 54 28 74 29 157 0 88
-3 101 -33 162 -63 129 -120 163 -657 396 -187 82 -373 167 -412 190 -172 101
-301 235 -374 387 -61 128 -74 188 -74 360 0 130 3 160 23 225 109 345 393
572 812 646 109 19 389 11 500 -15z m-2694 -1964 c64 -33 137 -113 158 -174
51 -148 -20 -321 -161 -389 -80 -40 -185 -40 -264 -1 -114 55 -181 159 -182
281 -1 140 84 259 215 302 66 21 172 13 234 -19z"/>
<path d="M1920 4405 l0 -695 210 0 c242 0 325 12 435 65 90 43 152 98 208 183
86 132 119 258 119 457 0 164 -19 262 -77 381 -56 115 -125 188 -227 238 -108
54 -192 66 -449 66 l-219 0 0 -695z"/>
</g>
</svg>
