<svg version="1" xmlns="http://www.w3.org/2000/svg" width="933.333" height="933.333" viewBox="0 0 700.000000 700.000000"><path d="M9.8 112.8l-9.8.3v396.1l68.8-.5c37.8-.2 70.1-.7 71.7-1 3.2-.7 6.6-1.3 13-2.2 12.6-1.9 44-11.5 48.9-15.1 1.6-1.1 1.7-1.8.5-7.1-.7-3.2-1.2-10.1-1.1-15.4.3-29.3 21.2-54.3 50.2-60.2 5.7-1.2 11-1.2 26.4-.4 2.7.2 3.1-.3 5.3-5.8 5.4-13.8 10.8-36.9 12.8-54.2.3-2.7 1-8 1.4-11.8.9-7.2.7-51-.2-55.5-.3-1.4-.8-5.3-1.1-8.7-2.2-23.1-9.5-48-20.7-70.7-21-42.1-62.3-72-114-82.5-21.3-4.4-28-4.8-80.9-5-27.8-.1-53-.3-56-.4-3-.1-9.9-.1-15.2.1zM119 170.5c18.5 1.8 31.7 5.3 45.9 12.1 20.8 9.9 35.7 24.9 46.2 46.5 3.7 7.4 9.3 23 10.3 28.6.2 1.5 1.2 6.6 2 11.3 2.8 14.8 3.8 43.7 2.3 62.1-4.2 49.4-21.3 82.9-52.7 103.1-10.5 6.7-29.9 13.7-42.9 15.4-2.5.3-4.9.8-5.3 1-1.6 1-53.7 2.4-53.9 1.5-.3-1.2-.6-281.6-.3-282.2.4-.7 39.7-.3 48.4.6zM556.8 177.5c-.2.2-3.7.6-7.8.9-4.1.4-8.2.9-9 1.1-.8.2-3.3.6-5.5 1-10.3 1.5-29.4 7.7-38.3 12.5-5.5 2.9-14.9 8.6-16 9.7-.8.7-2.3 1.8-3.4 2.4-2.6 1.4-7.6 5.8-14.1 12.4-39.2 40.1-38.6 105.1 1.4 144.5 13.3 13.1 30 23.5 54.4 34 4.4 1.8 10.7 4.6 14 6.1 3.3 1.5 16.4 7.2 29.1 12.7 33.5 14.6 40.7 18.2 50 25.3 12.7 9.8 17.7 20.6 17 37.4-.5 14.1-4.1 22.2-13.6 31.6-8.8 8.6-21.6 14-38.5 16.5-8.7 1.3-30.5.7-38.5-1.1-4.1-.9-8.4-1.8-9.5-2-4.4-1-13.1-3.9-13.9-4.7-.6-.4-1.6-.8-2.4-.8-2.6 0-21.7-9.8-30.7-15.7-4.9-3.3-12.7-8.9-17.2-12.5l-8.2-6.6-9.3 11c-5.1 6.1-10.6 12.7-12.3 14.7-1.6 2-6.3 7.4-10.2 12.1-4 4.6-7.3 9-7.3 9.6 0 1.3 12.9 12.5 22.1 19.1 13.3 9.8 29.6 18.5 47 25.3 11 4.3 35 10.5 44.4 11.6 3.3.3 6.9.8 8 1 2.5.6 36.2.5 39.5 0 1.4-.2 4.9-.7 7.9-1.1 34.1-4.4 64.8-19.3 85.1-41.3 12-13 20-26.8 24.5-42.5 3.5-12.4 4.4-18.9 4.3-31.9 0-19.9-3.1-34.4-10.4-49.2-9.4-19-26.8-35.8-49.7-47.9-7.4-4-39.2-18.2-50.7-22.7-4.3-1.7-26.8-11.1-34.7-14.5-28.2-12.2-40.5-21.2-46.6-34.4-2.7-5.7-3.1-7.6-3.1-15.6-.1-10.2 1.3-15.7 5.9-23 6.2-9.8 14.3-15.7 27-19.9 22.5-7.3 55-4.7 79.1 6.5 8.1 3.8 20.5 11.4 28.1 17.2l7.1 5.5 1.9-2.1c1-1.2 4.9-6 8.7-10.7 3.8-4.7 8.1-9.9 9.5-11.6 2.6-3 6.4-7.7 12.9-15.8l3.2-4.1-5.2-4.9c-15.3-14-36.9-27-58.3-34.9-4.2-1.5-18-5.5-21.8-6.3-4.1-.8-14.7-2.4-19.5-3-5-.6-26-1.3-26.4-.9z"/><path d="M330 305.2c-.1 124.9-.4 162.9-1.3 164.5-.3.4-.8 2.8-1.1 5.3-2.1 15.6-9.3 30.4-19.5 39.8-15.9 14.7-35.6 20.4-56.3 16.2-11.6-2.4-19.3-6.3-31.1-16-1-.8-4.1-4.5-6.9-8.2-2.8-3.8-5.4-6.8-5.8-6.8-.4 0-3.9 1.3-7.7 2.9-8 3.3-16.1 5.8-21.9 6.7-2.1.3-4.2.8-4.5 1-.5.3-2.6.7-11.4 2.3-2.6.4-4.1 1.2-4.3 2.4-.5 2.6 7 16.8 13.2 25 17.6 23.4 44 39.5 75.1 45.8 6.4 1.3 30.9 1.7 41.5.6 48.1-4.7 85.2-34.2 101.4-80.7 1.4-4.1 3.3-10.7 4.2-14.5 3.9-16.9 4.2-22.9 4.3-78.5.1-30 .3-94.4.4-143.3l.2-88.7H330v124.2z"/><path d="M260.8 414.5c-.2.1-2.3.5-4.9.8-14.7 1.8-30.1 12.1-38.2 25.7-5.9 9.9-8 17.6-7.9 28.5.4 24 15.1 44.2 38.2 52.1 7.9 2.6 25.4 2.6 33-.1 26.9-9.6 42.3-35.7 37.1-62.7-4.7-24.3-25.8-42.5-51.3-44.2-3.1-.2-5.8-.2-6-.1z"/></svg>