<?xml version="1.0" standalone="no"?>
<!DOCTYPE svg PUBLIC "-//W3C//DTD SVG 20010904//EN"
 "http://www.w3.org/TR/2001/REC-SVG-20010904/DTD/svg10.dtd">
<svg version="1.0" xmlns="http://www.w3.org/2000/svg"
 width="1200.000000pt" height="1200.000000pt" viewBox="0 0 1200.000000 1200.000000"
 preserveAspectRatio="xMidYMid meet">
<metadata>
Created by potrace 1.14, written by Peter Selinger 2001-2017
</metadata>
<g transform="translate(0.000000,1200.000000) scale(0.100000,-0.100000)"
fill="#000000" stroke="none">
<path d="M0 6000 l0 -6000 6000 0 6000 0 0 6000 0 6000 -6000 0 -6000 0 0
-6000z m3295 3059 c827 -71 1425 -385 1796 -943 211 -316 333 -677 396 -1161
25 -199 25 -740 0 -940 -38 -292 -105 -568 -191 -782 -67 -168 -49 -153 -153
-131 -66 14 -114 18 -193 14 -127 -6 -209 -26 -315 -76 -219 -104 -374 -294
-436 -531 -18 -72 -20 -100 -16 -223 3 -78 9 -155 12 -173 7 -30 5 -32 -39
-51 -155 -69 -420 -140 -644 -172 -216 -31 -478 -40 -1239 -40 l-693 0 0 2610
0 2610 798 0 c464 0 847 -5 917 -11z m5960 -924 c466 -74 873 -267 1215 -577
l63 -58 -124 -152 c-68 -85 -175 -217 -238 -294 l-114 -141 -104 78 c-299 225
-571 333 -910 360 -488 40 -851 -149 -922 -479 -16 -75 -14 -197 4 -267 56
-213 239 -361 660 -535 919 -380 1086 -456 1280 -584 155 -102 343 -288 423
-418 147 -238 210 -495 199 -813 -14 -393 -144 -693 -421 -971 -351 -350 -834
-526 -1446 -526 -426 0 -811 90 -1190 278 -229 114 -441 257 -615 417 l-69 64
19 24 c68 86 508 599 513 599 4 0 48 -35 97 -76 187 -158 442 -308 660 -389
232 -87 451 -122 689 -112 381 17 648 151 761 382 48 97 65 173 65 285 0 323
-164 494 -680 710 -230 97 -943 411 -1024 452 -414 208 -693 512 -806 878 -82
265 -80 592 4 844 133 396 447 717 870 891 195 80 344 116 626 149 75 9 420
-4 515 -19z m-2545 -1893 c0 -1561 -2 -1887 -14 -1982 -69 -549 -322 -993
-711 -1246 -239 -155 -479 -231 -810 -255 -389 -28 -685 33 -982 203 -301 172
-549 452 -648 730 l-14 36 52 7 c187 25 493 112 673 191 6 3 28 -23 49 -57 99
-161 279 -289 485 -345 88 -24 290 -24 379 -1 163 44 266 102 381 217 115 115
188 244 220 386 38 169 40 272 40 2155 l0 1829 450 0 450 0 0 -1868z m-1597
-1312 c319 -71 530 -363 496 -690 -33 -317 -306 -561 -627 -560 -278 1 -514
176 -608 450 -30 86 -27 282 5 374 34 99 85 181 155 252 97 96 201 152 336
179 92 18 142 17 243 -5z"/>
<path d="M2510 6465 l0 -1855 289 0 c315 0 452 12 621 55 582 146 933 527
1075 1165 49 218 60 344 60 660 -1 227 -5 324 -18 420 -65 455 -206 771 -452
1009 -148 143 -298 233 -504 301 -232 78 -414 100 -808 100 l-263 0 0 -1855z"/>
</g>
</svg>
